<svg viewBox="0 0 197 49" fill="none" xmlns="http://www.w3.org/2000/svg">
<path d="M187.982 19.0167C187.947 19.0167 187.908 19.0517 187.908 19.0912V19.774C187.908 19.8136 187.947 19.8486 187.982 19.8486H189.249V24.1651C189.249 24.2053 189.283 24.2402 189.324 24.2402H190.034C190.074 24.2402 190.115 24.2053 190.115 24.1651V19.8486H191.376C191.415 19.8486 191.451 19.8136 191.451 19.774V19.0912C191.451 19.0517 191.415 19.0167 191.376 19.0167" fill="#231F20"></path>
<path d="M135.541 12.5383C135.541 13.9371 136.636 15.0259 138.034 15.0259C139.427 15.0259 140.528 13.9371 140.528 12.5383C140.528 11.1513 139.427 10.0505 138.034 10.0505C136.636 10.0505 135.541 11.1455 135.541 12.5383Z" fill="#231F20"></path>
<path d="M148.6 20.7087L148.446 20.7992L148.124 19.9054C148.016 19.6016 147.73 19.4008 147.414 19.4008H145.809C145.396 19.4008 145.057 19.7379 145.057 20.1583V40.7341C145.057 41.1469 145.396 41.4915 145.809 41.4915H148.687C149.105 41.4915 149.444 41.1469 149.444 40.7341V24.0785L149.523 24.0446C150.711 23.4254 151.908 23.047 154.242 23.047C157.045 23.047 157.608 24.0963 157.608 25.799V40.7344C157.608 41.1472 157.946 41.486 158.359 41.486H161.243C161.655 41.486 161.993 41.1472 161.993 40.7344V25.9193C161.993 21.3837 159.316 18.9884 154.242 18.9884C152.362 18.9884 150.464 19.5668 148.6 20.709" fill="#231F20"></path>
<path d="M140.184 20.1581C140.184 19.7378 139.847 19.4007 139.433 19.4007H136.629C136.217 19.4007 135.879 19.7378 135.879 20.1581V40.734C135.879 41.1468 136.217 41.4856 136.629 41.4856H139.427C139.847 41.4856 140.184 41.1468 140.184 40.734" fill="#231F20"></path>
<path d="M130.611 9.86657C130.611 9.44812 130.272 9.10923 129.853 9.10923H127.068C126.643 9.10923 126.304 9.44812 126.304 9.86657V40.734C126.304 41.1468 126.643 41.4856 127.062 41.4856H129.853C130.272 41.4856 130.611 41.1468 130.611 40.734" fill="#231F20"></path>
<path d="M87.4742 28.4992C87.687 25.6663 88.4311 23.0468 92.4157 23.0468C95.8385 23.0468 96.5035 24.8871 96.5844 28.5049L96.5901 28.6649H87.4621L87.4742 28.4992ZM83.0195 30.4484C83.0195 33.2813 83.0195 41.9041 92.4157 41.9041C95.2313 41.9041 97.0888 41.7321 99.5141 40.9529C99.8001 40.8663 99.9612 40.5625 99.9612 40.2701V37.9545C99.9612 37.6959 99.8351 37.4608 99.6224 37.3232C99.4108 37.1793 99.1643 37.2086 98.912 37.2602C96.8073 37.7016 95.1281 37.8444 92.4157 37.8444C88.5063 37.8444 87.7385 35.3625 87.4919 32.6851L87.4742 32.5177H100.236C100.656 32.5177 100.993 32.1806 100.993 31.7678V30.4486C100.993 24.905 100.334 18.9947 92.4157 18.9947C83.0195 18.9884 83.0195 27.6174 83.0195 30.4484Z" fill="#231F20"></path>
<path d="M108.83 28.4992C109.042 25.6663 109.788 23.0468 113.778 23.0468C117.195 23.0468 117.86 24.8871 117.935 28.5049L117.94 28.6649H108.819L108.83 28.4992ZM104.376 30.4484C104.376 33.2813 104.376 41.9041 113.778 41.9041C116.593 41.9041 118.446 41.7321 120.876 40.9529C121.156 40.8663 121.324 40.5625 121.324 40.2701V37.9545C121.324 37.6959 121.192 37.4608 120.979 37.3232C120.768 37.1793 120.515 37.2086 120.275 37.2602C118.164 37.7016 116.491 37.8444 113.778 37.8444C109.862 37.8444 109.095 35.3625 108.848 32.6851L108.83 32.5177H121.598C122.011 32.5177 122.35 32.1806 122.35 31.7678V30.4486C122.35 24.905 121.685 18.9947 113.778 18.9947C104.376 18.9884 104.376 27.6174 104.376 30.4484Z" fill="#231F20"></path>
<path d="M170.244 28.4992C170.455 25.6663 171.201 23.0468 175.186 23.0468C178.609 23.0468 179.273 24.8871 179.348 28.5049L179.354 28.6649H170.232L170.244 28.4992ZM165.794 30.4484C165.794 33.2813 165.794 41.9041 175.186 41.9041C178.001 41.9041 179.852 41.7321 182.289 40.9529C182.564 40.8663 182.73 40.5625 182.73 40.2701V37.9545C182.73 37.6959 182.604 37.4608 182.392 37.3232C182.179 37.1793 181.928 37.2086 181.682 37.2602C179.571 37.7016 177.902 37.8444 175.186 37.8444C171.27 37.8444 170.507 35.3625 170.26 32.6851L170.238 32.5177H183.006C183.418 32.5177 183.757 32.1806 183.757 31.7678V30.4486C183.757 24.905 183.097 18.9947 175.186 18.9947C165.783 18.9884 165.794 27.6174 165.794 30.4484Z" fill="#231F20"></path>
<path d="M69.1002 26.8361C73.5491 26.8361 75.1253 28.189 75.1253 31.9965C75.1253 34.5473 74.3971 37.157 69.0193 37.157H62.547V26.8298H69.1L69.1002 26.8361ZM68.7671 13.3342C73.4507 13.3342 74.0932 15.5594 74.0932 17.9564C74.0932 21.0122 72.46 22.5016 69.1002 22.5016H62.5472V13.3342H68.7671ZM58.809 8.99987C58.3612 8.99987 58 9.36107 58 9.80887V40.6763C58 41.124 58.3612 41.491 58.809 41.491H68.8582C76.0427 41.491 79.9978 38.1141 79.9978 31.9966C79.9978 28.6645 78.3936 25.8218 75.7048 24.3938C75.7048 24.3938 75.636 24.3599 75.5728 24.3186C75.6302 24.2849 75.6933 24.2395 75.6933 24.2395C77.7744 22.7266 78.9665 20.4384 78.9665 17.9565C78.9665 14.6128 77.6191 8.99999 68.5657 8.99999" fill="#231F20"></path>
<path d="M196.065 19.0167C196.031 19.0167 196.008 19.0401 195.996 19.062C195.996 19.062 194.702 22.0783 194.576 22.3764C194.449 22.0783 193.159 19.062 193.159 19.062C193.147 19.0401 193.119 19.0167 193.09 19.0167H192.236C192.191 19.0167 192.155 19.0517 192.155 19.0912V24.1651C192.155 24.2053 192.185 24.2402 192.236 24.2402H192.93C192.94 24.2402 192.97 24.2345 192.982 24.2168C192.993 24.2053 193.004 24.1887 193.004 24.1594C193.004 24.1594 192.982 21.2182 192.97 20.5991C193.21 21.1495 194.242 23.5178 194.242 23.5178C194.248 23.546 194.277 23.5638 194.311 23.5638H194.85C194.879 23.5638 194.907 23.546 194.913 23.5178C194.913 23.5178 195.945 21.1495 196.175 20.5991C196.175 21.2182 196.152 24.1594 196.152 24.1594C196.152 24.1887 196.157 24.2053 196.169 24.2168C196.186 24.2345 196.203 24.2402 196.227 24.2402H196.919C196.961 24.2402 197 24.2053 197 24.1651V19.0912C197 19.0517 196.966 19.0167 196.919 19.0167" fill="#231F20"></path>
<path d="M24.4932 48.9674C38.0204 48.9674 48.9863 38.0058 48.9863 24.4838C48.9863 10.9618 38.0204 0 24.4932 0C10.9659 0 0 10.9618 0 24.4838C0 38.0058 10.9659 48.9674 24.4932 48.9674Z" fill="#FFC800"></path>
<path d="M35.036 42.728C26.7181 47.5259 17.697 48.3857 11.9348 45.5116C19.3121 49.9058 28.7846 50.2859 36.7462 45.6922C44.708 41.0938 49.1164 32.7046 48.9977 24.1206C48.6082 30.5479 43.3541 37.9299 35.036 42.728Z" fill="black"></path>
<path d="M27.6007 1.7989C29.2871 4.71558 25.2113 10.2261 18.4941 14.0977C11.7771 17.9693 4.96976 18.7484 3.28334 15.827C3.21199 15.6892 3.14557 15.5371 3.09801 15.3805C2.66114 14.0218 3.1835 12.2641 4.44247 10.4114C4.64666 10.1217 4.85578 9.83655 5.06961 9.5563C6.96964 7.08141 9.3781 4.93413 12.2474 3.28113C15.1168 1.62321 18.1807 0.615985 21.2732 0.207611C21.6343 0.155332 21.9859 0.117194 22.3278 0.0934119C24.5606 -0.0728518 26.3419 0.354807 27.3016 1.40938C27.4156 1.53772 27.5152 1.66584 27.6007 1.7989Z" fill="black"></path>
<path d="M38.0159 4.95485C40.9611 10.052 35.0182 18.9876 24.7478 24.9161C14.4774 30.8446 3.76046 31.5193 0.819995 26.4219C0.330631 25.5718 0.0694526 24.6264 0.0171739 23.6098C-0.111166 27.0349 0.477826 30.5168 1.85079 33.8232C2.05497 34.3173 2.27844 34.8065 2.51584 35.2911C2.52527 35.31 2.53962 35.3337 2.54905 35.3528C3.43736 36.8871 4.74862 38.0938 6.38276 38.968C12.145 42.0509 21.8881 40.9916 30.9994 35.7329C40.106 30.4742 45.8967 22.5741 46.1106 16.0472C46.1723 14.2039 45.7875 12.4699 44.9088 10.9356C44.5763 10.4368 44.2294 9.94747 43.8636 9.48189C41.7022 6.68883 39.0135 4.46548 36.0255 2.87891C36.8568 3.42526 37.5313 4.1141 38.0159 4.95485C38.0159 4.95485 38.0206 4.95956 38.0206 4.96427L38.0159 4.95485Z" fill="black"></path>
<path d="M24.5035 48.9674C38.0269 48.9674 48.9898 38.0058 48.9898 24.4838C48.9898 10.9618 38.0269 0 24.5035 0C10.9797 0 0.0168457 10.9618 0.0168457 24.4838C0.0168457 38.0058 10.9797 48.9674 24.5035 48.9674Z" fill="url(#paint0_radial_447_39902)"></path>
<defs>
<radialGradient id="paint0_radial_447_39902" cx="0" cy="0" r="1" gradientUnits="userSpaceOnUse" gradientTransform="translate(24.5011 24.4858) scale(24.486 24.4926)">
<stop offset="0.5" stop-color="white" stop-opacity="0"></stop>
<stop offset="1" stop-color="white" stop-opacity="0.35"></stop>
</radialGradient>
</defs>
</svg>
